HIERARCHY
ROOT Hips
{
	OFFSET 0.000000 0.000000 0.000000
	CHANNELS 6 Xposition Yposition Zposition Zrotation Yrotation Xrotation 
	JOINT LHipJoint
	{
		OFFSET 0.000000 0.000000 0.000000
		CHANNELS 3 Zrotation Yrotation Xrotation
		JOINT LeftUpLeg
		{
			OFFSET 1.363060 -1.794630 0.839290
			CHANNELS 3 Zrotation Yrotation Xrotation
			JOINT LeftLeg
			{
				OFFSET 2.448110 -6.726130 0.000000
				CHANNELS 3 Zrotation Yrotation Xrotation
				JOINT LeftFoot
				{
					OFFSET 2.562200 -7.039590 0.000000
					CHANNELS 3 Zrotation Yrotation Xrotation
					JOINT LeftToeBase
					{
						OFFSET 0.157640 -0.433110 2.322550
						CHANNELS 3 Zrotation Yrotation Xrotation
						End Site
						{
							OFFSET 0.000000 0.000000 0.000000
						}
					}
				}
			}
		}
	}
	JOINT RHipJoint
	{
		OFFSET 0.000000 0.000000 0.000000
		CHANNELS 3 Zrotation Yrotation Xrotation
		JOINT RightUpLeg
		{
			OFFSET -1.305520 -1.794630 0.839290
			CHANNELS 3 Zrotation Yrotation Xrotation
			JOINT RightLeg
			{
				OFFSET -2.542530 -6.985550 0.000000
				CHANNELS 3 Zrotation Yrotation Xrotation
				JOINT RightFoot
				{
					OFFSET -2.568260 -7.056230 0.000000
					CHANNELS 3 Zrotation Yrotation Xrotation
					JOINT RightToeBase
					{
						OFFSET -0.164730 -0.452590 2.363150
						CHANNELS 3 Zrotation Yrotation Xrotation
						End Site
						{
							OFFSET 0.000000 0.000000 0.000000
						}
					}
				}
			}
		}
	}
	JOINT LowerBack
	{
		OFFSET 0.000000 0.000000 0.000000
		CHANNELS 3 Zrotation Yrotation Xrotation
		JOINT Spine
		{
			OFFSET 0.028270 2.035590 -0.193380
			CHANNELS 3 Zrotation Yrotation Xrotation
			JOINT Spine1
			{
				OFFSET 0.056720 2.048850 -0.042750
				CHANNELS 3 Zrotation Yrotation Xrotation
				JOINT Neck
				{
					OFFSET 0.000000 0.000000 0.000000
					CHANNELS 3 Zrotation Yrotation Xrotation
					JOINT Neck1
					{
						OFFSET -0.054170 1.746240 0.172020
						CHANNELS 3 Zrotation Yrotation Xrotation
						JOINT Head
						{
							OFFSET 0.104070 1.761360 -0.123970
							CHANNELS 3 Zrotation Yrotation Xrotation
							End Site
							{
								OFFSET 0.000000 0.000000 0.000000
							}
						}
					}
				}
				JOINT LeftShoulder
				{
					OFFSET 0.000000 0.000000 0.000000
					CHANNELS 3 Zrotation Yrotation Xrotation
					JOINT LeftArm
					{
						OFFSET 3.362410 1.200890 -0.311210
						CHANNELS 3 Zrotation Yrotation Xrotation
						JOINT LeftForeArm
						{
							OFFSET 4.983000 -0.000000 -0.000000
							CHANNELS 3 Zrotation Yrotation Xrotation
							JOINT LeftHand
							{
								OFFSET 3.483560 -0.000000 -0.000000
								CHANNELS 3 Zrotation Yrotation Xrotation
								JOINT LeftFingerBase
								{
									OFFSET 0.000000 0.000000 0.000000
									CHANNELS 3 Zrotation Yrotation Xrotation
									JOINT LeftHandIndex1
									{
										OFFSET 0.715260 -0.000000 -0.000000
										CHANNELS 3 Zrotation Yrotation Xrotation
										End Site
										{
											OFFSET 0.000000 0.000000 0.000000
										}
									}
								}
								JOINT LThumb
								{
									OFFSET 0.000000 0.000000 0.000000
									CHANNELS 3 Zrotation Yrotation Xrotation
									End Site
									{
										OFFSET 0.000000 0.000000 0.000000
									}
								}
							}
						}
					}
				}
				JOINT RightShoulder
				{
					OFFSET 0.000000 0.000000 0.000000
					CHANNELS 3 Zrotation Yrotation Xrotation
					JOINT RightArm
					{
						OFFSET -3.136600 1.374050 -0.404650
						CHANNELS 3 Zrotation Yrotation Xrotation
						JOINT RightForeArm
						{
							OFFSET -5.241900 -0.000000 -0.000000
							CHANNELS 3 Zrotation Yrotation Xrotation
							JOINT RightHand
							{
								OFFSET -3.444170 -0.000000 -0.000000
								CHANNELS 3 Zrotation Yrotation Xrotation
								JOINT RightFingerBase
								{
									OFFSET 0.000000 0.000000 0.000000
									CHANNELS 3 Zrotation Yrotation Xrotation
									JOINT RightHandIndex1
									{
										OFFSET -0.622530 -0.000000 -0.000000
										CHANNELS 3 Zrotation Yrotation Xrotation
										End Site
										{
											OFFSET 0.000000 0.000000 0.000000
										}
									}
								}
								JOINT RThumb
								{
									OFFSET 0.000000 0.000000 0.000000
									CHANNELS 3 Zrotation Yrotation Xrotation
									End Site
									{
										OFFSET 0.000000 0.000000 0.000000
									}
								}
							}
						}
					}
				}
			}
		}
	}
}
MOTION
Frames: 4
Frame Time: 0.008333
18.196246 16.278829 11.519745 3.491330 -82.386647 2.225266 -7.189393 -16.032220 -13.377872 -5.205826 6.242798 4.528495 -3.823578 15.243644 19.742398 6.820614 4.283844 -11.764088 12.101428 -1.968376 -15.014168 -5.690733 8.406018 -12.575763 14.595030 5.998338 -17.866648 1.931109 -10.583637 4.146174 -0.734169 -7.715805 3.554407 1.561010 -5.902332 2.551988 9.951313 2.454137 29.727118 -0.872513 -0.689821 -10.703582 -5.019675 -2.035361 -3.208676 -0.492566 0.358582 -9.581470 7.988968 -0.301951 16.522859 -16.288717 12.207047 18.458678 12.554987 -6.434961 2.069930 -68.389022 -40.176946 -7.356540 -10.042963 -34.040843 12.878887 11.087468 -5.915713 0.086664 -0.000001 -0.000000 0.000000 0.000000 -0.000000 0.000000 -0.000000 0.000000 0.000000 -8.506958 -0.254506 4.207095 70.523655 8.296779 -8.356929 14.691924 19.746834 -1.919043 -19.569193 -1.207918 -0.256502 -0.000001 -0.000001 -0.000000 0.000000 -0.000000 -0.000000 0.000000 -0.000000 0.000000 
18.305405 16.315616 11.507538 2.258287 -82.426921 3.578731 -7.128563 -15.839540 -13.373353 -5.197074 6.154565 3.960203 -3.547324 14.931902 19.727120 6.302335 3.943676 -11.416268 11.375770 -1.596365 -14.388305 -5.468571 8.332020 -12.435726 14.860537 5.377520 -18.398619 1.941065 -11.137818 5.324723 -0.820926 -7.689696 3.438755 1.403622 -5.545405 1.486388 9.933617 2.356611 29.580722 -0.840846 -0.858015 -10.779938 -5.149056 -2.178843 -3.490463 -0.374127 0.339033 -9.290612 7.802031 -0.347512 16.584888 -15.858935 11.778594 18.880596 12.501885 -6.379380 1.882332 -69.051880 -39.136554 -6.761366 -10.031162 -33.413890 11.392978 12.034463 -4.429039 -0.028010 -0.000001 -0.000000 0.000000 -0.000000 -0.000000 0.000000 0.000000 -0.000000 0.000000 -8.212116 0.198556 4.279349 71.056681 8.195922 -7.497993 14.770858 19.815380 -2.556354 -19.601136 -2.025854 -0.230937 -0.000001 -0.000001 -0.000000 -0.000000 0.000000 -0.000000 0.000000 0.000000 0.000000 
18.411862 16.348649 11.492147 2.166598 -82.645647 3.688018 -6.963475 -15.786650 -13.374323 -5.424068 5.988387 3.690718 -3.366799 14.976756 19.308724 5.662176 3.697330 -11.093304 10.944340 -1.555412 -13.871113 -5.517645 8.313934 -12.437229 15.353908 4.743044 -18.925334 1.818316 -11.809999 7.280538 -1.194972 -7.211754 3.308912 1.379267 -5.399251 1.586641 9.661181 2.330333 29.524776 -0.801870 -0.843293 -10.794551 -5.052880 -2.150541 -3.586406 -0.460610 0.279683 -9.213024 7.608240 -0.390487 16.573373 -15.722735 11.305048 19.200387 12.395717 -6.321161 1.994719 -69.750915 -38.475637 -6.556640 -10.320999 -32.662638 11.803388 11.271967 -5.303048 0.049043 -0.000001 -0.000000 0.000000 -0.000000 0.000000 0.000000 -0.000000 0.000000 0.000000 -8.246750 0.355415 4.193816 71.604814 8.174741 -6.555095 14.959733 19.915262 -2.663590 -18.616403 -2.632941 -0.219788 -0.000001 -0.000001 -0.000000 0.000000 -0.000000 -0.000000 -0.000000 -0.000000 -0.000000 
18.517267 16.388138 11.477868 1.276479 -82.774586 4.644345 -6.931631 -15.676780 -13.357283 -5.415592 5.801210 3.368014 -3.214941 14.741227 18.998301 5.211070 3.587863 -10.702586 10.352422 -1.504091 -13.152513 -5.275772 8.215053 -12.414461 15.599518 4.234573 -19.434127 1.695732 -12.286807 9.247408 -1.523085 -7.101193 3.298290 1.244165 -5.111971 0.699893 9.549877 2.275618 29.456125 -0.772704 -0.919217 -10.868799 -5.177911 -2.215237 -3.990758 -0.332703 0.268849 -8.845190 7.420926 -0.428160 16.611563 -15.348385 10.866089 19.521406 12.396909 -6.392735 1.987903 -70.416045 -37.333128 -6.237078 -10.476973 -31.904091 11.196492 11.287926 -4.897219 0.031328 -0.000001 -0.000000 0.000000 0.000000 0.000000 0.000000 -0.000000 -0.000000 0.000000 -7.985378 0.723200 4.234532 72.117731 7.967288 -5.851097 15.189061 19.951402 -2.670882 -18.097258 -2.885799 -0.219319 -0.000001 -0.000001 -0.000000 -0.000000 -0.000000 0.000000 0.000000 -0.000000 0.000000 
